<?xml version="1.0" encoding="UTF-8"?>
<svg width="97px" height="97px" viewBox="0 0 97 97" version="1.1" xmlns="http://www.w3.org/2000/svg" xmlns:xlink="http://www.w3.org/1999/xlink" xmlns:sketch="http://www.bohemiancoding.com/sketch/ns">
    <!-- Generator: Sketch 3.3.3 (12081) - http://www.bohemiancoding.com/sketch -->
    <title>logo vsf xs</title>
    <desc>Created with Sketch.</desc>
    <defs></defs>
    <g id="Page-1" stroke="none" stroke-width="1" fill="none" fill-rule="evenodd" sketch:type="MSPage">
        <g id="logo-vsf-xs" sketch:type="MSArtboardGroup">
            <g id="Group" sketch:type="MSLayerGroup" transform="translate(17.000000, 4.000000)">
                <path d="M33.6326159,15.7827843 L35.6155096,13.8142027 L37.5985021,15.7817689 L35.6156083,17.7503505 L33.6326159,15.7827843 L33.6326159,15.7827843 Z" id="Rectangle-path" fill="#FFFFFF" sketch:type="MSShapeGroup"></path>
                <path d="M45.9733103,18.4274847 L47.5662268,16.8461442 L49.1591434,18.4274847 L47.5662268,20.0088252 L45.9733103,18.4274847 L45.9733103,18.4274847 Z" id="Rectangle-path" fill="#FFFFFF" sketch:type="MSShapeGroup"></path>
                <path d="M13.6984827,20.6048696 L14.8981379,19.4139326 L16.097793,20.6048696 L14.8981379,21.7958066 L13.6984827,20.6048696 L13.6984827,20.6048696 Z" id="Rectangle-path" fill="#FFFFFF" sketch:type="MSShapeGroup"></path>
                <path d="M35.9911413,4.33811001 L36.5039458,3.82874403 L37.0170405,4.33782194 L36.504236,4.84718792 L35.9911413,4.33811001 L35.9911413,4.33811001 Z" id="Rectangle-path" fill="#FFFFFF" sketch:type="MSShapeGroup"></path>
                <path d="M9.46386866,6.03459259 L9.97667322,5.52522662 L10.489768,6.03430453 L9.97696339,6.5436705 L9.46386866,6.03459259 L9.46386866,6.03459259 Z" id="Rectangle-path" fill="#FFFFFF" sketch:type="MSShapeGroup"></path>
                <path d="M26.7011193,17.3664671 L27.2139238,16.8571012 L27.7270186,17.3661791 L27.214214,17.875545 L26.7011193,17.3664671 L26.7011193,17.3664671 Z" id="Rectangle-path" fill="#FFFFFF" sketch:type="MSShapeGroup"></path>
                <path d="M54.8452875,7.59641129 L55.3580921,7.08704532 L55.8711868,7.59612323 L55.3583823,8.1054892 L54.8452875,7.59641129 L54.8452875,7.59641129 Z" id="Rectangle-path" fill="#FFFFFF" sketch:type="MSShapeGroup"></path>
                <path d="M19.2020606,1.76256701 C19.0264545,1.95157732 18.8129545,2.047 18.5634091,2.047 C18.3138636,2.047 18.0938939,1.95157732 17.9025758,1.76256701 C17.7260455,1.58823711 17.6382424,1.37628866 17.6382424,1.1285567 C17.6382424,0.880824742 17.7260455,0.662453608 17.9025758,0.472525773 C18.0938939,0.298195876 18.3138636,0.211030928 18.5634091,0.211030928 C18.8129545,0.211030928 19.0255303,0.298195876 19.2020606,0.472525773 C19.3933788,0.662453608 19.4885758,0.880824742 19.4885758,1.1285567 C19.4885758,1.37628866 19.3933788,1.58823711 19.2020606,1.76256701 L19.2020606,1.76256701 Z" id="Shape" fill="#FFFFFF" sketch:type="MSShapeGroup"></path>
                <path d="M31.8660303,10.1148041 C31.7782273,10.2028866 31.6682424,10.2469278 31.5360758,10.2469278 C31.4039091,10.2469278 31.2939242,10.2028866 31.2061212,10.1148041 C31.1183182,10.0276392 31.0739545,9.91845361 31.0739545,9.78724742 C31.0739545,9.65604124 31.1183182,9.54685567 31.2061212,9.45969072 C31.2939242,9.37252577 31.4039091,9.32848454 31.5360758,9.32848454 C31.6682424,9.32848454 31.7782273,9.37252577 31.8660303,9.45969072 C31.9547576,9.5477732 31.998197,9.65695876 31.998197,9.78724742 C31.998197,9.91845361 31.9547576,10.0276392 31.8660303,10.1148041 L31.8660303,10.1148041 Z" id="Shape" fill="#FFFFFF" sketch:type="MSShapeGroup"></path>
                <path d="M13.3442121,14.5097526 C13.2120455,14.6418763 13.050303,14.7070206 12.8599091,14.7070206 C12.6695152,14.7070206 12.5077727,14.6418763 12.3756061,14.5097526 C12.2434394,14.3785464 12.1778182,14.2188969 12.1778182,14.0289691 C12.1778182,13.8399588 12.2443636,13.6793918 12.3756061,13.5481856 C12.5077727,13.4169794 12.6695152,13.3518351 12.8599091,13.3518351 C13.050303,13.3518351 13.2120455,13.4169794 13.3442121,13.5481856 C13.4763788,13.6803093 13.542,13.8399588 13.542,14.0289691 C13.542,14.2188969 13.4754545,14.3785464 13.3442121,14.5097526 L13.3442121,14.5097526 Z" id="Shape" fill="#FFFFFF" sketch:type="MSShapeGroup"></path>
                <path d="M34.5749848,21.5499278 C34.4576061,21.6820515 34.3106515,21.7471959 34.1341212,21.7471959 C33.9575909,21.7471959 33.8041667,21.6820515 33.672,21.5499278 C33.5546212,21.4334021 33.4963939,21.2875155 33.4963939,21.112268 C33.4963939,20.9370206 33.5546212,20.7847113 33.672,20.6535052 C33.8041667,20.5369794 33.9585152,20.4791753 34.1341212,20.4791753 C34.3097273,20.4791753 34.4576061,20.5369794 34.5749848,20.6535052 C34.7071515,20.7847113 34.7727727,20.9379381 34.7727727,21.112268 C34.7727727,21.2865979 34.7071515,21.4334021 34.5749848,21.5499278 L34.5749848,21.5499278 Z" id="Shape" fill="#FFFFFF" sketch:type="MSShapeGroup"></path>
                <path d="M47.6132727,1.8937732 C47.5254697,1.99561856 47.4080909,2.047 47.2611364,2.047 C47.1141818,2.047 46.9894091,1.99561856 46.8868182,1.8937732 C46.7990152,1.80660825 46.7546515,1.69008247 46.7546515,1.54419588 C46.7546515,1.39830928 46.7990152,1.2744433 46.8868182,1.17259794 C46.9894091,1.08543299 47.1141818,1.04139175 47.2611364,1.04139175 C47.4080909,1.04139175 47.5254697,1.08543299 47.6132727,1.17259794 C47.7158636,1.2744433 47.7676212,1.39830928 47.7676212,1.54419588 C47.7676212,1.69008247 47.7167879,1.80660825 47.6132727,1.8937732 L47.6132727,1.8937732 Z" id="Shape" fill="#FFFFFF" sketch:type="MSShapeGroup"></path>
                <path d="M3.05831818,14.1821959 C2.97051515,14.2693608 2.85960606,14.3134021 2.72836364,14.3134021 C2.59619697,14.3134021 2.48621212,14.2693608 2.39840909,14.1812784 C2.30968182,14.0941134 2.26624242,13.9849278 2.26624242,13.8537216 C2.26624242,13.7225155 2.30968182,13.6133299 2.39840909,13.5261649 C2.48621212,13.4380825 2.59619697,13.3949588 2.72836364,13.3949588 C2.8605303,13.3949588 2.97051515,13.4380825 3.05831818,13.5261649 C3.14612121,13.6142474 3.19048485,13.723433 3.19048485,13.8537216 C3.19048485,13.9858454 3.14704545,14.0950309 3.05831818,14.1821959 L3.05831818,14.1821959 Z" id="Shape" fill="#FFFFFF" sketch:type="MSShapeGroup"></path>
                <path d="M59.661697,15.3190103 C59.5729697,15.4070928 59.4629848,15.4502165 59.3317424,15.4502165 C59.1995758,15.4502165 59.0895909,15.4070928 59.0017879,15.3190103 C58.9130606,15.2309278 58.8696212,15.1217423 58.8696212,14.9914536 C58.8696212,14.8611649 58.9130606,14.7510619 59.0017879,14.6638969 C59.0895909,14.5758144 59.1995758,14.5326907 59.3317424,14.5326907 C59.4639091,14.5326907 59.5738939,14.5758144 59.661697,14.6638969 C59.7495,14.7519794 59.7938636,14.8611649 59.7938636,14.9914536 C59.7938636,15.1217423 59.7495,15.2309278 59.661697,15.3190103 L59.661697,15.3190103 Z" id="Shape" fill="#FFFFFF" sketch:type="MSShapeGroup"></path>
                <path d="M26.9315,74.8425773 C26.7845455,75.0031443 26.6015455,75.0829691 26.3806515,75.0829691 C26.1597576,75.0829691 25.9693636,75.0031443 25.8076212,74.8425773 C25.6606667,74.6966907 25.5876515,74.5150206 25.5876515,74.295732 C25.5876515,74.0764433 25.6615909,73.887433 25.8076212,73.726866 C25.9693636,73.5818969 26.1597576,73.5084948 26.3806515,73.5084948 C26.6015455,73.5084948 26.7845455,73.5818969 26.9315,73.726866 C27.0932424,73.887433 27.1736515,74.0773608 27.1736515,74.295732 C27.1736515,74.5141031 27.0932424,74.6966907 26.9315,74.8425773 L26.9315,74.8425773 Z" id="Shape" fill="#FFFFFF" sketch:type="MSShapeGroup"></path>
                <path d="M25.0127727,82.7167835 C24.609803,83.1480206 24.1144091,83.3627216 23.5265909,83.3627216 C22.9387727,83.3627216 22.4276667,83.1480206 21.994197,82.7167835 C21.5912273,82.3176598 21.3906667,81.825866 21.3906667,81.2423196 C21.3906667,80.6587732 21.5921515,80.1513814 21.994197,79.7210619 C22.4276667,79.3210206 22.9378485,79.1219175 23.5265909,79.1219175 C24.1153333,79.1219175 24.6107273,79.3219381 25.0127727,79.7210619 C25.4462424,80.1513814 25.6634394,80.6578557 25.6634394,81.2423196 C25.6634394,81.8267835 25.4453182,82.3176598 25.0127727,82.7167835 L25.0127727,82.7167835 Z" id="Shape" fill="#FFFFFF" sketch:type="MSShapeGroup"></path>
                <path d="M31.1201667,83.2975773 C30.8854091,83.5315464 30.6062879,83.6480722 30.282803,83.6480722 C29.9593182,83.6480722 29.6811212,83.5315464 29.4463636,83.2975773 C29.2116061,83.0645258 29.0942273,82.787433 29.0942273,82.468134 C29.0942273,82.147 29.2116061,81.8699072 29.4463636,81.6368557 C29.6811212,81.4038041 29.9602424,81.2872784 30.282803,81.2872784 C30.6053636,81.2872784 30.8844848,81.4038041 31.1201667,81.6368557 C31.3549242,81.8699072 31.472303,82.1479175 31.472303,82.468134 C31.472303,82.787433 31.3549242,83.0645258 31.1201667,83.2975773 L31.1201667,83.2975773 Z" id="Shape" fill="#FFFFFF" sketch:type="MSShapeGroup"></path>
                <path d="M28.3982727,88.8293402 C28.3104697,88.9311856 28.2004848,88.982567 28.0683182,88.982567 C27.9361515,88.982567 27.8187727,88.9311856 27.7161818,88.8293402 C27.6283788,88.7421753 27.5840152,88.6329897 27.5840152,88.5017835 C27.5840152,88.3705773 27.6283788,88.2540515 27.7161818,88.1522062 C27.8187727,88.0641237 27.9361515,88.0200825 28.0683182,88.0200825 C28.2004848,88.0200825 28.3104697,88.0641237 28.3982727,88.1522062 C28.5008636,88.2540515 28.5526212,88.3705773 28.5526212,88.5017835 C28.5526212,88.6329897 28.5017879,88.7421753 28.3982727,88.8293402 L28.3982727,88.8293402 Z" id="Shape" fill="#FFFFFF" sketch:type="MSShapeGroup"></path>
                <path d="M45.1686515,10.3120722 C44.7573636,10.7350515 44.2508788,10.9460825 43.649197,10.9460825 C43.0475152,10.9460825 42.5327121,10.7350515 42.1075606,10.3120722 C41.6962727,9.90469072 41.4910909,9.40096907 41.4910909,8.80274227 C41.4910909,8.20451546 41.697197,7.69528866 42.1075606,7.27230928 C42.5327121,6.86492784 43.0475152,6.66031959 43.649197,6.66031959 C44.2508788,6.66031959 44.7573636,6.86492784 45.1686515,7.27230928 C45.5947273,7.69528866 45.807303,8.20543299 45.807303,8.80274227 C45.807303,9.40005155 45.5947273,9.9037732 45.1686515,10.3120722 L45.1686515,10.3120722 Z" id="Shape" fill="#FFFFFF" sketch:type="MSShapeGroup"></path>
                <path d="M22.8944091,13.2729278 C22.3213788,13.8417938 21.6318939,14.1262268 20.8241061,14.1262268 C20.0163182,14.1262268 19.3268333,13.8417938 18.753803,13.2729278 C18.1807727,12.7049794 17.8951818,12.0195876 17.8951818,11.2176701 C17.8951818,10.4166701 18.181697,9.73127835 18.753803,9.1633299 C19.3268333,8.59446392 20.0163182,8.31003093 20.8241061,8.31003093 C21.6318939,8.31003093 22.322303,8.59446392 22.8944091,9.1633299 C23.4674394,9.73127835 23.7530303,10.4166701 23.7530303,11.2176701 C23.7530303,12.0195876 23.4674394,12.7049794 22.8944091,13.2729278 L22.8944091,13.2729278 Z" id="Shape" fill="#FFFFFF" sketch:type="MSShapeGroup"></path>
                <path d="M30.6571212,53.4128454 L0.526818182,23.5024227 L60.7874242,23.5024227 L30.6571212,53.4128454 Z" id="Shape" fill="#CCCCCC" sketch:type="MSShapeGroup"></path>
                <path d="M39.714697,46.3020206 L39.714697,62.4045979 L31.5813636,54.3303711 L39.714697,46.3020206 Z" id="Shape" fill="#2F5199" sketch:type="MSShapeGroup"></path>
                <path d="M21.6457576,63.3221237 L21.6457576,46.3020206 L38.7904545,63.3221237 L21.6457576,63.3221237 Z" id="Shape" fill="#FFBA00" sketch:type="MSShapeGroup"></path>
                <path d="M39.714697,64.6075773 L39.714697,81.6267629 L22.57,64.6075773 L39.714697,64.6075773 Z" id="Shape" fill="#B42500" sketch:type="MSShapeGroup"></path>
            </g>
        </g>
    </g>
</svg>